<svg width="597" height="134" viewBox="0 0 597 134" fill="none" xmlns="http://www.w3.org/2000/svg">
<path fill-rule="evenodd" clip-rule="evenodd" d="M44.9922 32.3945C54.8362 30.9551 63.5029 33.4551 70.9922 39.8945C72.6843 43.3332 71.6843 45.4998 67.9922 46.3945C50.6799 35.2989 38.1799 39.2989 30.4922 58.3945C28.6092 69.8479 31.7758 79.6814 39.9922 87.8945C49.0211 92.9265 57.6878 92.2598 65.9922 85.8945C71.1635 84.9946 72.8302 86.9946 70.9922 91.8945C55.4814 103.06 41.3148 101.56 28.4922 87.3945C18.0413 69.1523 20.2079 52.6523 34.9922 37.8945C38.2594 35.7658 41.5927 33.9325 44.9922 32.3945Z" fill="#E94842"/>
<path fill-rule="evenodd" clip-rule="evenodd" d="M93.9922 33.3946C100.692 33.0646 107.358 33.3979 113.992 34.3946C126.011 38.4206 130.845 46.7539 128.492 59.3946C127.689 62.1388 126.689 64.8055 125.492 67.3946C123 69.0443 121.167 71.2109 119.992 73.8946C123.841 80.4047 127.675 86.9047 131.492 93.3946C131.825 99.3946 129.492 100.728 124.492 97.3946C120.118 90.2787 116.118 82.9454 112.492 75.3946C110.67 73.8492 108.503 73.1826 105.992 73.3946C104.063 73.4342 102.23 73.7675 100.492 74.3946C100.159 81.7279 99.8252 89.0613 99.4922 96.3946C97.1589 99.0616 94.8255 99.0616 92.4922 96.3946C91.8255 76.3946 91.8255 56.3946 92.4922 36.3946C93.0055 35.368 93.5055 34.368 93.9922 33.3946Z" fill="#E84640"/>
<path fill-rule="evenodd" clip-rule="evenodd" d="M225.992 97.3945C225.682 76.682 226.015 56.0153 226.992 35.3945C227.052 34.8514 227.385 34.5181 227.992 34.3945C240.613 35.209 253.28 35.709 265.992 35.8945C268.659 38.2278 268.659 40.5612 265.992 42.8945C255.331 43.3943 244.664 43.561 233.992 43.3945C233.992 50.0612 233.992 56.7278 233.992 63.3945C241.666 63.2281 249.333 63.3948 256.992 63.8945C260.529 65.721 260.863 68.0543 257.992 70.8945C250.325 71.2278 242.659 71.5612 234.992 71.8945C234.174 80.3162 233.674 88.8162 233.492 97.3945C232.792 98.9265 231.626 99.9265 229.992 100.395C228.64 99.3705 227.307 98.3701 225.992 97.3945Z" fill="#E94741"/>
<path fill-rule="evenodd" clip-rule="evenodd" d="M173.992 35.3945C177.544 37.0989 180.711 39.4322 183.492 42.3945C193.15 61.7124 203.316 80.7124 213.992 99.3945C205.345 100.56 196.678 100.727 187.992 99.8945C184.492 97.7278 181.659 94.8945 179.492 91.3945C177.783 94.313 175.95 97.1463 173.992 99.8945C165.659 100.562 157.325 100.562 148.992 99.8945C146.659 98.2278 144.325 96.5612 141.992 94.8945C153.326 75.3916 163.993 55.5583 173.992 35.3945Z" fill="#F1B9A9"/>
<path fill-rule="evenodd" clip-rule="evenodd" d="M280.992 35.3945C295.996 35.2279 310.996 35.3946 325.992 35.8945C328.659 38.2278 328.659 40.5612 325.992 42.8945C320.001 43.394 314.001 43.5607 307.992 43.3945C308.159 61.7309 307.992 80.0642 307.492 98.3945C305.52 100.336 303.353 100.67 300.992 99.3945C300.159 81.0702 299.659 62.7369 299.492 44.3945C293.407 43.5828 287.24 43.0828 280.992 42.8945C279.713 40.3969 279.713 37.8969 280.992 35.3945Z" fill="#E94A43"/>
<path fill-rule="evenodd" clip-rule="evenodd" d="M352.992 45.3946C352.327 48.3761 351.994 51.5428 351.992 54.8946C352.007 58.4704 352.674 61.6371 353.992 64.3946C361 64.2283 368 64.395 374.992 64.8946C378.529 66.7211 378.863 69.0544 375.992 71.8946C368.325 72.2279 360.659 72.5613 352.992 72.8946C351.849 79.313 351.682 85.813 352.492 92.3946C362.915 93.2157 373.415 93.7157 383.992 93.8946C387.529 95.7211 387.863 98.0544 384.992 100.895C371.75 101.717 358.583 101.55 345.492 100.395C343.849 79.8172 343.516 59.1505 344.492 38.3946C344.992 37.8946 345.492 37.3946 345.992 36.8946C358.992 36.2279 371.992 36.2279 384.992 36.8946C387.659 39.2279 387.659 41.5613 384.992 43.8946C374.151 44.0642 363.484 44.5642 352.992 45.3946Z" fill="#E84640"/>
<path fill-rule="evenodd" clip-rule="evenodd" d="M448.992 52.3946C450.786 60.9167 451.453 69.5834 450.992 78.3946C449.313 87.5594 444.313 94.3927 435.992 98.8946C426.47 101.301 416.803 101.968 406.992 100.895C406.366 100.145 405.866 99.3106 405.492 98.3946C404.825 78.3946 404.825 58.3946 405.492 38.3946C405.992 37.8946 406.492 37.3946 406.992 36.8946C414.659 36.2279 422.325 36.2279 429.992 36.8946C438.912 38.9891 445.245 44.1557 448.992 52.3946Z" fill="#E94842"/>
<path fill-rule="evenodd" clip-rule="evenodd" d="M510.992 46.3946C511.654 50.3605 511.987 54.3605 511.992 58.3946C511.015 61.8838 509.015 64.7171 505.992 66.8946C509.523 69.3956 512.69 72.2289 515.492 75.3946C518.926 88.4932 514.426 97.3266 501.992 101.895C492.992 102.562 483.992 102.562 474.992 101.895C474.492 101.395 473.992 100.895 473.492 100.395C472.825 80.0613 472.825 59.7279 473.492 39.3946C473.992 38.8946 474.492 38.3946 474.992 37.8946C483.325 37.2279 491.659 37.2279 499.992 37.8946C504.856 39.3103 508.522 42.1436 510.992 46.3946Z" fill="#E94741"/>
<path fill-rule="evenodd" clip-rule="evenodd" d="M526.992 37.3945C530.106 37.9858 532.606 39.6525 534.492 42.3945C539.065 51.4554 544.231 60.122 549.992 68.3945C556.569 59.5831 562.403 50.2498 567.492 40.3945C569.439 36.909 571.772 36.5757 574.492 39.3945C574.952 42.1989 574.452 44.8656 572.992 47.3945C566.575 57.2271 560.408 67.2271 554.492 77.3945C554.159 85.0612 553.825 92.7278 553.492 100.395C551.159 103.062 548.825 103.062 546.492 100.395C546.159 92.7278 545.825 85.0612 545.492 77.3945C537.862 65.7964 531.029 53.7964 524.992 41.3945C525.295 39.7802 525.962 38.4468 526.992 37.3945Z" fill="#E94A44"/>
<path fill-rule="evenodd" clip-rule="evenodd" d="M226.992 35.3945C226.015 56.0153 225.682 76.682 225.992 97.3945C224.829 77.232 224.663 56.8987 225.492 36.3945C225.875 35.8385 226.375 35.5052 226.992 35.3945Z" fill="#F4B9B6"/>
<path fill-rule="evenodd" clip-rule="evenodd" d="M100.992 41.3945C109.02 39.9367 115.52 42.27 120.492 48.3945C123.464 55.1531 121.964 60.6531 115.992 64.8945C110.741 65.6982 105.574 65.5315 100.492 64.3945C99.6942 56.6485 99.8612 48.9818 100.992 41.3945Z" fill="#FBF6F6"/>
<path fill-rule="evenodd" clip-rule="evenodd" d="M173.992 41.3945C177.492 41.3899 178.992 43.0566 178.492 46.3945C169.23 62.5853 160.23 78.9187 151.492 95.3945C149.721 94.5904 148.221 93.4237 146.992 91.8945C156.28 75.1836 165.28 58.3502 173.992 41.3945Z" fill="#FBF7F6"/>
<path fill-rule="evenodd" clip-rule="evenodd" d="M414.992 43.3946C437.748 42.9793 447.582 53.9793 444.492 76.3946C439.053 90.9969 428.719 96.3302 413.492 92.3946C412.825 76.7279 412.825 61.0613 413.492 45.3946C414.209 44.8504 414.709 44.1837 414.992 43.3946Z" fill="#FBF7F6"/>
<path fill-rule="evenodd" clip-rule="evenodd" d="M352.992 45.3945C352.701 51.8175 353.034 58.1509 353.992 64.3945C352.674 61.637 352.007 58.4703 351.992 54.8945C351.994 51.5427 352.327 48.376 352.992 45.3945Z" fill="#F5BDBC"/>
<path fill-rule="evenodd" clip-rule="evenodd" d="M481.992 45.3943C488.001 45.2281 494.001 45.3948 499.992 45.8943C504.715 49.1479 506.215 53.6479 504.492 59.3943C502.298 62.0749 499.465 63.5749 495.992 63.8943C491.325 64.561 486.659 64.561 481.992 63.8943C480.678 57.7279 480.678 51.5613 481.992 45.3943Z" fill="#FBF6F5"/>
<path fill-rule="evenodd" clip-rule="evenodd" d="M180.992 46.3949C181.868 46.264 182.535 46.5974 182.992 47.3949C191.51 63.6046 199.844 79.9379 207.992 96.3949C201.992 97.7282 195.992 97.7282 189.992 96.3949C187.58 91.2362 184.913 86.2362 181.992 81.3949C178.594 86.1328 175.594 91.1328 172.992 96.3949C166.685 97.5588 160.351 97.7255 153.992 96.8949C163.399 80.246 172.399 63.4127 180.992 46.3949Z" fill="#FBF9F9"/>
<path fill-rule="evenodd" clip-rule="evenodd" d="M510.992 46.3945C512.509 48.3566 513.176 50.6899 512.992 53.3945C512.985 55.2638 512.652 56.9305 511.992 58.3945C511.987 54.3604 511.654 50.3604 510.992 46.3945Z" fill="#F18A85"/>
<path fill-rule="evenodd" clip-rule="evenodd" d="M448.992 52.3945C450.05 53.4947 450.884 54.8281 451.492 56.3945C453.582 63.9389 453.415 71.2723 450.992 78.3945C451.453 69.5833 450.786 60.9166 448.992 52.3945Z" fill="#EC625C"/>
<path fill-rule="evenodd" clip-rule="evenodd" d="M480.992 72.3943C488 72.228 495 72.3947 501.992 72.8943C508.571 76.1123 510.571 81.2789 507.992 88.3943C506.799 90.421 505.132 91.921 502.992 92.8943C496.048 94.3491 489.048 94.6824 481.992 93.8943C481.012 86.8156 480.679 79.6489 480.992 72.3943Z" fill="#FBF8F8"/>
</svg>
